<mxfile host="Electron" modified="2020-10-17T08:58:29.745Z" agent="5.0 (X11; Linux x86_64) AppleWebKit/537.36 (KHTML, like Gecko) draw.io/13.6.2 Chrome/83.0.4103.122 Electron/9.2.0 Safari/537.36" etag="VvYTyPQvxvPZqE6pXcg_" compressed="false" version="13.6.2" type="device">
  <diagram id="f80tpMSeLRQ-L9lKVjwY" name="Page-1">
    <mxGraphModel dx="1874" dy="1085" grid="1" gridSize="10" guides="1" tooltips="1" connect="1" arrows="1" fold="1" page="1" pageScale="1" pageWidth="1169" pageHeight="827" math="0" shadow="0">
      <root>
        <mxCell id="0" />
        <mxCell id="1" parent="0" />
        <mxCell id="jDIYAommFn_w5E8CbMxw-1" value="" style="rounded=0;whiteSpace=wrap;html=1;fillColor=#dae8fc;strokeColor=#6c8ebf;" parent="1" vertex="1">
          <mxGeometry x="80" y="800" width="160" height="40" as="geometry" />
        </mxCell>
        <mxCell id="jDIYAommFn_w5E8CbMxw-2" value="" style="rounded=0;whiteSpace=wrap;html=1;fillColor=#dae8fc;strokeColor=#6c8ebf;" parent="1" vertex="1">
          <mxGeometry x="240" y="800" width="160" height="40" as="geometry" />
        </mxCell>
        <mxCell id="jDIYAommFn_w5E8CbMxw-3" value="" style="rounded=0;whiteSpace=wrap;html=1;fillColor=#d5e8d4;strokeColor=#82b366;" parent="1" vertex="1">
          <mxGeometry x="400" y="800" width="80" height="40" as="geometry" />
        </mxCell>
        <mxCell id="jDIYAommFn_w5E8CbMxw-4" value="" style="rounded=0;whiteSpace=wrap;html=1;fillColor=#d5e8d4;strokeColor=#82b366;" parent="1" vertex="1">
          <mxGeometry x="480" y="800" width="80" height="40" as="geometry" />
        </mxCell>
        <mxCell id="jDIYAommFn_w5E8CbMxw-5" value="" style="rounded=0;whiteSpace=wrap;html=1;fillColor=#d5e8d4;strokeColor=#82b366;" parent="1" vertex="1">
          <mxGeometry x="560" y="800" width="80" height="40" as="geometry" />
        </mxCell>
        <mxCell id="jDIYAommFn_w5E8CbMxw-6" value="" style="rounded=0;whiteSpace=wrap;html=1;fillColor=#d5e8d4;strokeColor=#82b366;" parent="1" vertex="1">
          <mxGeometry x="720" y="800" width="80" height="40" as="geometry" />
        </mxCell>
        <mxCell id="jDIYAommFn_w5E8CbMxw-7" value="" style="rounded=0;whiteSpace=wrap;html=1;fillColor=#d5e8d4;strokeColor=#82b366;" parent="1" vertex="1">
          <mxGeometry x="800" y="800" width="80" height="40" as="geometry" />
        </mxCell>
        <mxCell id="jDIYAommFn_w5E8CbMxw-8" value="" style="rounded=0;whiteSpace=wrap;html=1;fillColor=#dae8fc;strokeColor=#6c8ebf;" parent="1" vertex="1">
          <mxGeometry x="880" y="800" width="160" height="40" as="geometry" />
        </mxCell>
        <mxCell id="jDIYAommFn_w5E8CbMxw-9" value="" style="rounded=0;whiteSpace=wrap;html=1;fillColor=#f8cecc;strokeColor=#b85450;" parent="1" vertex="1">
          <mxGeometry x="640" y="800" width="40" height="40" as="geometry" />
        </mxCell>
        <mxCell id="jDIYAommFn_w5E8CbMxw-11" value="" style="rounded=0;whiteSpace=wrap;html=1;fillColor=#f8cecc;strokeColor=#b85450;" parent="1" vertex="1">
          <mxGeometry x="680" y="800" width="40" height="40" as="geometry" />
        </mxCell>
        <mxCell id="jDIYAommFn_w5E8CbMxw-36" value="0" style="text;html=1;strokeColor=none;fillColor=none;align=center;verticalAlign=middle;whiteSpace=wrap;rounded=0;fontSize=20;" parent="1" vertex="1">
          <mxGeometry x="140" y="810" width="40" height="20" as="geometry" />
        </mxCell>
        <mxCell id="jDIYAommFn_w5E8CbMxw-38" value="1" style="text;html=1;strokeColor=none;fillColor=none;align=center;verticalAlign=middle;whiteSpace=wrap;rounded=0;fontSize=20;" parent="1" vertex="1">
          <mxGeometry x="300" y="810" width="40" height="20" as="geometry" />
        </mxCell>
        <mxCell id="jDIYAommFn_w5E8CbMxw-40" value="2" style="text;html=1;strokeColor=none;fillColor=none;align=center;verticalAlign=middle;whiteSpace=wrap;rounded=0;fontSize=20;" parent="1" vertex="1">
          <mxGeometry x="940" y="810" width="40" height="20" as="geometry" />
        </mxCell>
        <mxCell id="jDIYAommFn_w5E8CbMxw-41" value="4" style="text;html=1;strokeColor=none;fillColor=none;align=center;verticalAlign=middle;whiteSpace=wrap;rounded=0;fontSize=20;" parent="1" vertex="1">
          <mxGeometry x="500" y="810" width="40" height="20" as="geometry" />
        </mxCell>
        <mxCell id="jDIYAommFn_w5E8CbMxw-42" value="5" style="text;html=1;strokeColor=none;fillColor=none;align=center;verticalAlign=middle;whiteSpace=wrap;rounded=0;fontSize=20;" parent="1" vertex="1">
          <mxGeometry x="580" y="810" width="40" height="20" as="geometry" />
        </mxCell>
        <mxCell id="jDIYAommFn_w5E8CbMxw-48" value="6" style="text;html=1;strokeColor=none;fillColor=none;align=center;verticalAlign=middle;whiteSpace=wrap;rounded=0;fontSize=20;" parent="1" vertex="1">
          <mxGeometry x="740" y="810" width="40" height="20" as="geometry" />
        </mxCell>
        <mxCell id="jDIYAommFn_w5E8CbMxw-49" value="7" style="text;html=1;strokeColor=none;fillColor=none;align=center;verticalAlign=middle;whiteSpace=wrap;rounded=0;fontSize=20;" parent="1" vertex="1">
          <mxGeometry x="820" y="810" width="40" height="20" as="geometry" />
        </mxCell>
        <mxCell id="jDIYAommFn_w5E8CbMxw-50" value="8" style="text;html=1;strokeColor=none;fillColor=none;align=center;verticalAlign=middle;whiteSpace=wrap;rounded=0;fontSize=20;" parent="1" vertex="1">
          <mxGeometry x="640" y="810" width="40" height="20" as="geometry" />
        </mxCell>
        <mxCell id="jDIYAommFn_w5E8CbMxw-51" value="9" style="text;html=1;strokeColor=none;fillColor=none;align=center;verticalAlign=middle;whiteSpace=wrap;rounded=0;fontSize=20;" parent="1" vertex="1">
          <mxGeometry x="680" y="810" width="40" height="20" as="geometry" />
        </mxCell>
        <mxCell id="FMcvk9MNVY62p3xgn3dj-1" value="3" style="text;html=1;strokeColor=none;fillColor=none;align=center;verticalAlign=middle;whiteSpace=wrap;rounded=0;fontSize=20;" vertex="1" parent="1">
          <mxGeometry x="420" y="810" width="40" height="20" as="geometry" />
        </mxCell>
      </root>
    </mxGraphModel>
  </diagram>
</mxfile>
